<?xml version="1.0" encoding="UTF-8"?><svg xmlns="http://www.w3.org/2000/svg" xmlns:xlink="http://www.w3.org/1999/xlink" viewBox="0 0 32 32" version="1.1"><path d="M16 2.883l-13 6.5v13.234l13 6.5 13-6.5V9.383zm0 2.234l11 5.5v10.766l-11 5.5-11-5.5V10.617zM13 10c-3.3 0-6 2.7-6 6s2.7 6 6 6a5.91 5.91 0 0 0 3.902-1.5L15.2 19.3c-.601.4-1.398.7-2.199.7-2.2 0-4-1.8-4-4s1.8-4 4-4c.8 0 1.598.3 2.2.7l1.702-1.2A5.91 5.91 0 0 0 13 10zm5 2v1h-1v2h1v2h-1v2h1v1h2v-1h2v1h2v-1h1v-2h-1v-2h1v-2h-1v-1h-2v1h-2v-1zm2 3h2v2h-2z" id="surface1"/><metadata><rdf:RDF xmlns:rdf="http://www.w3.org/1999/02/22-rdf-syntax-ns#" xmlns:rdfs="http://www.w3.org/2000/01/rdf-schema#" xmlns:dc="http://purl.org/dc/elements/1.1/"><rdf:Description about="https://iconscout.com/legal#licenses" dc:title="c,sharp,logo" dc:description="c,sharp,logo" dc:publisher="Iconscout" dc:date="2017-12-30" dc:format="image/svg+xml" dc:language="en"><dc:creator><rdf:Bag><rdf:li>Icons8</rdf:li></rdf:Bag></dc:creator></rdf:Description></rdf:RDF></metadata></svg>